# xmcd
#
# Track frame offsets: 
#        150
#        27504
#        56258
#        83310
#        110754
#        133867
#        155992
#        160224
#        178061
#        195822
#
# Disc length: 3071 seconds
#
# Revision: 0
# Processed by: cddbd v1.5.2PL0 Copyright (c) Steve Scherf et al.
# Submitted via: ExactAudioCopyFreeDBPlugin 1.0
#
DISCID=7d0bfd0a
DTITLE=John Lee Sanders - Live at Rock Beach
DYEAR=1900
DGENRE=
TTITLE0=One Crazy Night
TTITLE1=Midnight in New Orleans
TTITLE2=Please Send Me Someone to Love
TTITLE3=Spanish Inquisition
TTITLE4=Saturday Night Fish Fry
TTITLE5=Red Flags
TTITLE6=In Troduction (Mama's Song)
TTITLE7=I Never Saw It Coming
TTITLE8=How Long Do You Hang On to a Dream
TTITLE9=It's All Blues to Me
EXTD=
EXTT0=
EXTT1=
EXTT2=
EXTT3=
EXTT4=
EXTT5=
EXTT6=
EXTT7=
EXTT8=
EXTT9=
PLAYORDER=
